<svg width="24" height="24" viewBox="0 0 24 24" fill="none" xmlns="http://www.w3.org/2000/svg">
<path d="M7.6 1H4.2C2.43269 1 1 2.43269 1 4.2V8.25333C1 10.0206 2.43269 11.4533 4.2 11.4533H7.6C9.36731 11.4533 10.8 10.0206 10.8 8.25333V4.2C10.8 2.43269 9.36731 1 7.6 1Z" fill="white"/>
<path d="M7.6 12.5467H4.2C2.43269 12.5467 1 13.9794 1 15.7467V19.8C1 21.5673 2.43269 23 4.2 23H7.6C9.36731 23 10.8 21.5673 10.8 19.8V15.7467C10.8 13.9794 9.36731 12.5467 7.6 12.5467Z" fill="white"/>
<path d="M20 1.5H15.25C14.0074 1.5 13 2.13651 13 3.53846V20.4615C13 21.8635 14.0074 22.5 15.25 22.5H19.5C20.7426 22.5 22 21.8635 22 20.4615V3.53846C22 2.13651 21.2426 1.5 20 1.5Z" fill="white" fill-opacity="0.6" stroke="white"/>
</svg>
