<svg width="21" height="20" viewBox="0 0 21 20" fill="none" xmlns="http://www.w3.org/2000/svg">
<g clip-path="url(#clip0)">
<path d="M14.9805 0H6.01913C2.97588 0 0.5 2.476 0.5 5.51924V14.4806C0.5 17.524 2.97588 19.9999 6.01913 19.9999H14.9805C18.024 19.9999 20.4999 17.5239 20.4999 14.4806V5.51924C20.5 2.476 18.024 0 14.9805 0ZM18.7255 14.4806C18.7255 16.5455 17.0455 18.2254 14.9806 18.2254H6.01913C3.95433 18.2255 2.27449 16.5455 2.27449 14.4806V5.51924C2.27449 3.45445 3.95433 1.77449 6.01913 1.77449H14.9805C17.0454 1.77449 18.7254 3.45445 18.7254 5.51924V14.4806H18.7255Z" fill="white"/>
<path d="M10.5 4.84668C7.65836 4.84668 5.34656 7.15848 5.34656 10.0001C5.34656 12.8417 7.65836 15.1534 10.5 15.1534C13.3417 15.1534 15.6535 12.8417 15.6535 10.0001C15.6535 7.15848 13.3417 4.84668 10.5 4.84668ZM10.5 13.3788C8.63693 13.3788 7.12104 11.8631 7.12104 10C7.12104 8.13681 8.63681 6.62105 10.5 6.62105C12.3632 6.62105 13.879 8.13681 13.879 10C13.879 11.8631 12.3631 13.3788 10.5 13.3788Z" fill="white"/>
<path d="M15.8696 3.34204C15.5278 3.34204 15.1919 3.48045 14.9505 3.72296C14.7078 3.96429 14.5684 4.30026 14.5684 4.64333C14.5684 4.98533 14.708 5.32118 14.9505 5.5637C15.1918 5.80503 15.5278 5.94462 15.8696 5.94462C16.2127 5.94462 16.5475 5.80503 16.79 5.5637C17.0325 5.32118 17.1709 4.98522 17.1709 4.64333C17.1709 4.30026 17.0325 3.96429 16.79 3.72296C16.5487 3.48045 16.2127 3.34204 15.8696 3.34204Z" fill="white"/>
</g>
<defs>
<clipPath id="clip0">
<rect width="20" height="20" fill="white" transform="translate(0.5)"/>
</clipPath>
</defs>
</svg>
